HIERARCHY
ROOT Root
{
  OFFSET 0.0 0.0 0.0
  CHANNELS 6 Xposition Yposition Zposition Zrotation Yrotation Xrotation
  JOINT Hips
  {
    OFFSET 0.0 100.0 0.0
    CHANNELS 6 Xposition Yposition Zposition Zrotation Yrotation Xrotation
    JOINT Spine1
    {
      OFFSET 5.003913 -0.037094 -0.013727
      CHANNELS 3 Zrotation Yrotation Xrotation
      JOINT Spine2
      {
        OFFSET 7.125363 -1e-06 0.0
        CHANNELS 3 Zrotation Yrotation Xrotation
        JOINT Chest
        {
          OFFSET 7.594027 1e-06 0.0
          CHANNELS 3 Zrotation Yrotation Xrotation
          JOINT Neck1
          {
            OFFSET 26.313086 -0.460272 -0.181672
            CHANNELS 3 Zrotation Yrotation Xrotation
            JOINT Neck2
            {
              OFFSET 8.045911 0.0 0.0
              CHANNELS 3 Zrotation Yrotation Xrotation
              JOINT Head
              {
                OFFSET 6.432774 0.0 0.0
                CHANNELS 3 Zrotation Yrotation Xrotation
                JOINT HeadEnd
                {
                  OFFSET 16.169773 0.06451 0.00362
                  CHANNELS 3 Zrotation Yrotation Xrotation
                }
                JOINT Jaw
                {
                  OFFSET 0.108741 3.12938 0.002639
                  CHANNELS 3 Zrotation Yrotation Xrotation
                }
                JOINT LeftEye
                {
                  OFFSET 4.45173 8.166359 3.206392
                  CHANNELS 3 Zrotation Yrotation Xrotation
                }
                JOINT RightEye
                {
                  OFFSET 4.436895 8.135758 -3.222429
                  CHANNELS 3 Zrotation Yrotation Xrotation
                }
              }
            }
          }
          JOINT LeftShoulder
          {
            OFFSET 23.218927 5.195579 1.621656
            CHANNELS 3 Zrotation Yrotation Xrotation
            JOINT LeftArm
            {
              OFFSET 15.902118 2e-06 -2e-06
              CHANNELS 3 Zrotation Yrotation Xrotation
              JOINT LeftForeArm
              {
                OFFSET 28.739307 0.0 -1e-06
                CHANNELS 3 Zrotation Yrotation Xrotation
                JOINT LeftHand
                {
                  OFFSET 27.093981 -4e-06 0.0
                  CHANNELS 3 Zrotation Yrotation Xrotation
                  JOINT LeftHandThumb1
                  {
                    OFFSET 2.276781 3.380274 0.83384
                    CHANNELS 3 Zrotation Yrotation Xrotation
                    JOINT LeftHandThumb2
                    {
                      OFFSET 4.705309 -1e-06 -1e-06
                      CHANNELS 3 Zrotation Yrotation Xrotation
                      JOINT LeftHandThumb3
                      {
                        OFFSET 2.798515 0.0 3e-06
                        CHANNELS 3 Zrotation Yrotation Xrotation
                        JOINT LeftHandThumbEnd
                        {
                          OFFSET 3.180793 4e-06 -4e-06
                          CHANNELS 3 Zrotation Yrotation Xrotation
                        }
                      }
                    }
                  }
                  JOINT LeftHandIndex1
                  {
                    OFFSET 3.247786 2.352677 0.137192
                    CHANNELS 3 Zrotation Yrotation Xrotation
                    JOINT LeftHandIndex2
                    {
                      OFFSET 6.367095 1e-06 0.0
                      CHANNELS 3 Zrotation Yrotation Xrotation
                      JOINT LeftHandIndex3
                      {
                        OFFSET 3.662364 0.0 0.0
                        CHANNELS 3 Zrotation Yrotation Xrotation
                        JOINT LeftHandIndex4
                        {
                          OFFSET 2.329242 4e-06 -4e-06
                          CHANNELS 3 Zrotation Yrotation Xrotation
                          JOINT LeftHandIndexEnd
                          {
                            OFFSET 2.767823 1e-06 0.0
                            CHANNELS 3 Zrotation Yrotation Xrotation
                          }
                        }
                      }
                    }
                  }
                  JOINT LeftHandMiddle1
                  {
                    OFFSET 3.163612 0.945023 -0.406112
                    CHANNELS 3 Zrotation Yrotation Xrotation
                    JOINT LeftHandMiddle2
                    {
                      OFFSET 6.276789 3e-06 0.0
                      CHANNELS 3 Zrotation Yrotation Xrotation
                      JOINT LeftHandMiddle3
                      {
                        OFFSET 4.35652 -1e-06 4e-06
                        CHANNELS 3 Zrotation Yrotation Xrotation
                        JOINT LeftHandMiddle4
                        {
                          OFFSET 2.996877 0.0 8e-06
                          CHANNELS 3 Zrotation Yrotation Xrotation
                          JOINT LeftHandMiddleEnd
                          {
                            OFFSET 2.323256 3e-06 -4e-06
                            CHANNELS 3 Zrotation Yrotation Xrotation
                          }
                        }
                      }
                    }
                  }
                  JOINT LeftHandRing1
                  {
                    OFFSET 2.882606 -0.309162 0.107445
                    CHANNELS 3 Zrotation Yrotation Xrotation
                    JOINT LeftHandRing2
                    {
                      OFFSET 6.033198 0.0 4e-06
                      CHANNELS 3 Zrotation Yrotation Xrotation
                      JOINT LeftHandRing3
                      {
                        OFFSET 4.350578 3e-06 0.0
                        CHANNELS 3 Zrotation Yrotation Xrotation
                        JOINT LeftHandRing4
                        {
                          OFFSET 2.651321 2e-06 -7e-06
                          CHANNELS 3 Zrotation Yrotation Xrotation
                          JOINT LeftHandRingEnd
                          {
                            OFFSET 1.937663 1e-06 -4e-06
                            CHANNELS 3 Zrotation Yrotation Xrotation
                          }
                        }
                      }
                    }
                  }
                  JOINT LeftHandPinky1
                  {
                    OFFSET 2.865315 -1.525436 0.575687
                    CHANNELS 3 Zrotation Yrotation Xrotation
                    JOINT LeftHandPinky2
                    {
                      OFFSET 5.54936 1e-06 -8e-06
                      CHANNELS 3 Zrotation Yrotation Xrotation
                      JOINT LeftHandPinky3
                      {
                        OFFSET 3.070974 0.0 -4e-06
                        CHANNELS 3 Zrotation Yrotation Xrotation
                        JOINT LeftHandPinky4
                        {
                          OFFSET 1.549672 1e-06 0.0
                          CHANNELS 3 Zrotation Yrotation Xrotation
                          JOINT LeftHandPinkyEnd
                          {
                            OFFSET 1.952123 0.0 0.0
                            CHANNELS 3 Zrotation Yrotation Xrotation
                          }
                        }
                      }
                    }
                  }
                }
              }
            }
          }
          JOINT RightShoulder
          {
            OFFSET 23.161716 5.296122 -1.380114
            CHANNELS 3 Zrotation Yrotation Xrotation
            JOINT RightArm
            {
              OFFSET -16.027195 -2e-06 1.1e-05
              CHANNELS 3 Zrotation Yrotation Xrotation
              JOINT RightForeArm
              {
                OFFSET -28.736639 4e-06 2e-06
                CHANNELS 3 Zrotation Yrotation Xrotation
                JOINT RightHand
                {
                  OFFSET -27.133619 6e-06 0.0
                  CHANNELS 3 Zrotation Yrotation Xrotation
                  JOINT RightHandThumb1
                  {
                    OFFSET -2.274328 -3.351035 -0.83067
                    CHANNELS 3 Zrotation Yrotation Xrotation
                    JOINT RightHandThumb2
                    {
                      OFFSET -4.703594 -3e-06 2e-06
                      CHANNELS 3 Zrotation Yrotation Xrotation
                      JOINT RightHandThumb3
                      {
                        OFFSET -2.794935 -4e-06 -3e-06
                        CHANNELS 3 Zrotation Yrotation Xrotation
                        JOINT RightHandThumbEnd
                        {
                          OFFSET -3.183852 4e-06 1e-06
                          CHANNELS 3 Zrotation Yrotation Xrotation
                        }
                      }
                    }
                  }
                  JOINT RightHandIndex1
                  {
                    OFFSET -3.253496 -2.33755 -0.127667
                    CHANNELS 3 Zrotation Yrotation Xrotation
                    JOINT RightHandIndex2
                    {
                      OFFSET -6.344434 0.0 0.0
                      CHANNELS 3 Zrotation Yrotation Xrotation
                      JOINT RightHandIndex3
                      {
                        OFFSET -3.654871 0.0 -8e-06
                        CHANNELS 3 Zrotation Yrotation Xrotation
                        JOINT RightHandIndex4
                        {
                          OFFSET -2.327586 -1e-06 0.0
                          CHANNELS 3 Zrotation Yrotation Xrotation
                          JOINT RightHandIndexEnd
                          {
                            OFFSET -2.770001 3e-06 8e-06
                            CHANNELS 3 Zrotation Yrotation Xrotation
                          }
                        }
                      }
                    }
                  }
                  JOINT RightHandMiddle1
                  {
                    OFFSET -3.168223 -0.944764 0.411762
                    CHANNELS 3 Zrotation Yrotation Xrotation
                    JOINT RightHandMiddle2
                    {
                      OFFSET -6.266691 -1e-06 -4e-06
                      CHANNELS 3 Zrotation Yrotation Xrotation
                      JOINT RightHandMiddle3
                      {
                        OFFSET -4.348901 0.0 0.0
                        CHANNELS 3 Zrotation Yrotation Xrotation
                        JOINT RightHandMiddle4
                        {
                          OFFSET -3.00024 2e-06 -4e-06
                          CHANNELS 3 Zrotation Yrotation Xrotation
                          JOINT RightHandMiddleEnd
                          {
                            OFFSET -2.321477 -4e-06 -4e-06
                            CHANNELS 3 Zrotation Yrotation Xrotation
                          }
                        }
                      }
                    }
                  }
                  JOINT RightHandRing1
                  {
                    OFFSET -2.885654 0.293261 -0.119232
                    CHANNELS 3 Zrotation Yrotation Xrotation
                    JOINT RightHandRing2
                    {
                      OFFSET -6.032835 -1e-06 -4e-06
                      CHANNELS 3 Zrotation Yrotation Xrotation
                      JOINT RightHandRing3
                      {
                        OFFSET -4.33881 0.0 -4e-06
                        CHANNELS 3 Zrotation Yrotation Xrotation
                        JOINT RightHandRing4
                        {
                          OFFSET -2.654903 -4e-06 -4e-06
                          CHANNELS 3 Zrotation Yrotation Xrotation
                          JOINT RightHandRingEnd
                          {
                            OFFSET -1.935122 0.0 4e-06
                            CHANNELS 3 Zrotation Yrotation Xrotation
                          }
                        }
                      }
                    }
                  }
                  JOINT RightHandPinky1
                  {
                    OFFSET -2.866241 1.503904 -0.60527
                    CHANNELS 3 Zrotation Yrotation Xrotation
                    JOINT RightHandPinky2
                    {
                      OFFSET -5.553177 -2e-06 0.0
                      CHANNELS 3 Zrotation Yrotation Xrotation
                      JOINT RightHandPinky3
                      {
                        OFFSET -3.062664 -1e-06 -4e-06
                        CHANNELS 3 Zrotation Yrotation Xrotation
                        JOINT RightHandPinky4
                        {
                          OFFSET -1.546529 2e-06 4e-06
                          CHANNELS 3 Zrotation Yrotation Xrotation
                          JOINT RightHandPinkyEnd
                          {
                            OFFSET -1.952341 0.0 -4e-06
                            CHANNELS 3 Zrotation Yrotation Xrotation
                          }
                        }
                      }
                    }
                  }
                }
              }
            }
          }
        }
      }
    }
    JOINT LeftLeg
    {
      OFFSET -8.443107 2.567604 10.043214
      CHANNELS 3 Zrotation Yrotation Xrotation
      JOINT LeftShin
      {
        OFFSET 43.229198 1e-06 -1e-06
        CHANNELS 3 Zrotation Yrotation Xrotation
        JOINT LeftFoot
        {
          OFFSET 42.298611 1e-06 1e-06
          CHANNELS 3 Zrotation Yrotation Xrotation
          JOINT LeftToeBase
          {
            OFFSET 14.165858 1e-06 0.0
            CHANNELS 3 Zrotation Yrotation Xrotation
            JOINT LeftToeEnd
            {
              OFFSET 6.7141 -0.234461 0.0
              CHANNELS 3 Zrotation Yrotation Xrotation
            }
          }
        }
      }
    }
    JOINT RightLeg
    {
      OFFSET -8.303923 2.592729 -10.047278
      CHANNELS 3 Zrotation Yrotation Xrotation
      JOINT RightShin
      {
        OFFSET -43.369682 0.0 1e-06
        CHANNELS 3 Zrotation Yrotation Xrotation
        JOINT RightFoot
        {
          OFFSET -42.260784 4e-06 2e-06
          CHANNELS 3 Zrotation Yrotation Xrotation
          JOINT RightToeBase
          {
            OFFSET -14.222245 -2e-06 -1e-06
            CHANNELS 3 Zrotation Yrotation Xrotation
            JOINT RightToeEnd
            {
              OFFSET -6.660062 0.232574 -2e-06
              CHANNELS 3 Zrotation Yrotation Xrotation
            }
          }
        }
      }
    }
  }
}
MOTION
Frames: 5
Frame Time: 0.03333333333333333
0.0 0.0 0.0 0.0 -0.0 0.0 -11.016895 97.170219 264.62207 91.534744 2.112161 95.656914 1.73865 -0.979435 -0.419906 -10.42804 -0.821671 -0.954249 15.861498 -1.250532 -3.893066 13.782108 -0.191459 2.496643 -2.452856 -0.642315 -0.74944 -40.779755 -1.818584 -0.674035 6e-06 -0.0 0.0 0.063149 0.031126 -0.002161 0.217342 -0.066426 -0.025016 0.285219 0.121413 0.024113 -123.663147 -77.082253 141.39801 25.205645 -44.173721 14.049587 37.339203 -0.537339 -0.136846 2.932485 -1.945304 17.849072 17.636627 -26.322733 52.41119 -19.466661 -14.3956 29.410381 -1e-06 -8.774822 -1e-06 16.08914 -17.974125 5.965456 -0.609775 -1.795654 -3.889325 -4.807088 -11.046809 -2.937851 5e-06 -20.976015 -3e-06 -5.01997 -25.033558 -4.031879 5e-06 1e-06 -1e-06 -10.634534 -5.68697 -3.565585 10.573276 -17.922953 -3.113901 3e-06 -13.821211 -3e-06 -0.501778 -31.181507 -4.027013 -11.611658 -60.086357 7.320022 -13.982714 -7.150196 -2.875038 13.77273 -8.40149 -3.218246 0.347733 -34.211552 0.771655 -0.963028 -17.73337 2.62102 -1e-06 1e-06 0.0 -17.346416 -20.095217 -4.20178 21.757557 -1.638375 3.866426 2e-06 -6.338824 0.0 -1.697589 -22.591747 -6.194005 1e-06 -2e-06 -1e-06 58.77108 -75.974159 139.159485 27.005825 -48.673771 19.904148 39.927456 0.239056 0.057045 -1.308636 2.589104 7.763062 22.182116 -20.375887 49.9333 -16.701811 -16.74353 28.476526 -3e-06 -12.690602 -3e-06 16.070047 -17.301771 2.646094 -0.10592 -1.513856 -4.275881 -5.039042 -5.612872 -2.953557 3e-06 -11.020524 -2e-06 -6.1113 -15.895334 -3.84047 1e-06 -0.0 -0.0 -10.28337 -5.680288 -4.341836 11.028295 -11.302404 -2.372632 -1.384269 -14.238581 -6.320118 -0.625439 -26.924187 -3.827601 -3.915187 -49.720924 -4.045427 -13.708525 -7.363477 -3.720941 18.14115 -14.052739 -3.242675 6e-06 -18.78727 -2e-06 -0.429711 -8.456045 2.555503 -1e-06 -1e-06 -1e-06 -15.923538 -20.094482 -5.47358 30.419214 -7.190825 1.735922 4e-06 -8.162926 0.0 -1.861905 -22.861469 -6.167943 -1e-06 -1e-06 0.0 -165.226715 -2.156615 -11.692982 10.910073 -0.103256 0.506247 -87.691437 7.833883 -4.199856 -7.908293 1.378451 2.156959 -0.999998 -0.0 0.0 -18.661983 -6.754077 -14.668561 7.258394 0.072392 -0.238312 -57.890671 -2.984655 -4.509967 -8.840771 0.930949 1.616823 -1.000002 -0.0 -0.0 
0.0 0.0 0.0 0.0 -0.0 0.0 -12.107018 97.284874 266.991486 90.627289 1.936083 95.808617 1.600637 -0.55378 -0.423614 -10.503648 -0.719738 -0.99633 15.816657 -0.695156 -3.82908 13.609018 -0.470239 2.516821 -2.436927 -0.725365 -0.643202 -41.019577 -1.641152 -0.483837 5e-06 -0.0 -0.0 0.045742 0.017528 -0.02834 0.203584 -0.064891 -0.065218 0.2649 0.094619 0.013009 -123.597031 -77.011375 141.290558 25.248148 -44.591377 13.220283 36.94017 -0.41135 -0.143152 2.81464 -1.288013 17.165665 17.636629 -26.322733 52.411198 -19.46666 -14.395598 29.410393 0.0 -8.774822 -3e-06 16.133778 -17.882059 5.954665 -0.609777 -1.795655 -3.88933 -4.807091 -11.046813 -2.937846 2e-06 -20.976019 -1e-06 -5.019974 -25.03356 -4.031882 7e-06 1e-06 -2e-06 -10.634537 -5.686974 -3.565588 10.573271 -17.922951 -3.113901 2e-06 -13.82121 -1e-06 -0.501781 -31.181505 -4.027017 -11.55401 -60.100719 7.422642 -13.982716 -7.150201 -2.875041 13.77273 -8.401491 -3.218241 0.347732 -34.211555 0.771652 -0.96303 -17.73337 2.621018 1e-06 0.0 1e-06 -17.346422 -20.095221 -4.201784 21.757559 -1.638373 3.866431 2e-06 -6.338823 0.0 -1.69759 -22.591747 -6.194005 -2e-06 -3e-06 0.0 58.636185 -76.633743 139.200699 28.659338 -48.265926 18.865538 39.781437 0.390707 0.080886 -1.480632 2.989692 7.549644 22.182112 -20.375887 49.933304 -16.701811 -16.743528 28.476522 -2e-06 -12.6906 -4e-06 16.037828 -17.348482 2.590821 -0.10592 -1.513856 -4.27588 -5.039041 -5.612873 -2.953557 3e-06 -11.020525 -5e-06 -6.111301 -15.895334 -3.840466 0.0 -0.0 -0.0 -10.283371 -5.680288 -4.341835 11.028292 -11.302406 -2.372634 -1.384269 -14.238581 -6.320117 -0.625439 -26.924187 -3.827601 -3.837203 -49.603172 -4.189793 -13.708524 -7.363476 -3.720939 18.141146 -14.052738 -3.242673 5e-06 -18.78727 -2e-06 -0.429711 -8.456043 2.555504 1e-06 -1e-06 -0.0 -15.923536 -20.094482 -5.473582 30.41921 -7.190823 1.735928 4e-06 -8.162927 -3e-06 -1.861903 -22.861467 -6.167945 -0.0 -2e-06 -0.0 -164.355026 -4.100132 -11.911915 11.788733 -0.135327 0.572102 -85.92321 8.444715 -4.841445 -9.623137 1.493281 2.142424 -0.999999 -1e-06 -0.0 -19.890493 -5.918042 -14.818289 12.511817 0.063468 -0.167276 -59.228477 -3.652265 -4.023955 -8.222083 0.847882 1.615291 -1.000002 0.0 -0.0 
0.0 0.0 0.0 0.0 -0.0 0.0 -13.25673 97.612923 269.371094 90.214401 1.982375 96.025368 1.642224 -0.453318 -0.452665 -10.501857 -0.742061 -0.923967 15.438705 -0.374023 -3.878175 13.854194 -0.674448 2.592906 -2.38571 -0.738773 -0.463403 -41.14389 -1.505148 -0.564111 6e-06 -0.0 0.0 0.063091 0.007925 -0.035905 0.246057 -0.071365 -0.077522 0.298244 0.086013 0.011117 -120.98011 -77.528061 138.677521 25.496101 -45.49128 13.022127 36.809628 -0.165963 -0.184218 2.280458 -0.965233 16.719631 17.636631 -26.322729 52.411186 -19.466663 -14.395598 29.410389 -1e-06 -8.774822 -2e-06 16.177914 -17.937008 5.9842 -0.609777 -1.795653 -3.889328 -4.80709 -11.046811 -2.93785 4e-06 -20.976019 -1e-06 -5.019971 -25.03356 -4.031882 6e-06 2e-06 -2e-06 -10.634533 -5.68697 -3.565589 10.573271 -17.922951 -3.113898 2e-06 -13.821209 -2e-06 -0.501777 -31.181505 -4.027015 -11.612371 -59.94062 7.610327 -13.982714 -7.150198 -2.875042 13.77273 -8.401491 -3.218241 0.347733 -34.211555 0.771652 -0.963031 -17.733368 2.621021 -0.0 -2e-06 0.0 -17.346422 -20.095217 -4.201783 21.757561 -1.638375 3.866428 1e-06 -6.338824 -1e-06 -1.69759 -22.591749 -6.194005 -2e-06 -4e-06 -0.0 61.755142 -77.43792 135.814941 30.770361 -48.598854 17.724216 39.895393 0.22236 0.01544 -2.079443 3.732357 8.092396 22.182117 -20.375891 49.933315 -16.701811 -16.74353 28.476528 -3e-06 -12.690601 -1e-06 16.115118 -17.367493 2.563991 -0.105919 -1.513855 -4.275885 -5.039042 -5.612873 -2.953556 3e-06 -11.020523 0.0 -6.111298 -15.89533 -3.840471 -0.0 -0.0 1e-06 -10.283371 -5.68029 -4.341839 11.028293 -11.302406 -2.372629 -1.38427 -14.238583 -6.320119 -0.62544 -26.924189 -3.8276 -3.867663 -49.50272 -4.10814 -13.708527 -7.36348 -3.72094 18.14115 -14.052737 -3.242676 5e-06 -18.78727 -3e-06 -0.429712 -8.456045 2.555503 1e-06 -1e-06 -0.0 -15.923539 -20.094486 -5.473586 30.419214 -7.190823 1.735928 4e-06 -8.162927 -1e-06 -1.861904 -22.861469 -6.167946 -0.0 -2e-06 -2e-06 -163.945312 -5.772413 -11.829726 14.062043 -0.236193 0.701145 -83.682808 9.68159 -5.107924 -12.430954 1.726789 2.146937 -0.999998 0.0 0.0 -19.626143 -5.092029 -15.384148 15.408195 0.123602 -0.161685 -61.539581 -4.028608 -3.100567 -7.417966 0.797939 1.625348 -1.000001 0.0 -0.0 
0.0 0.0 0.0 0.0 -0.0 0.0 -14.478239 97.976334 271.716827 89.917351 2.056263 96.32843 1.575018 -0.299649 -0.417988 -10.489023 -0.760259 -0.890837 15.127081 -0.4503 -3.898708 14.010136 -0.730436 2.666181 -2.361853 -0.732427 -0.514383 -40.975941 -1.354015 -0.637909 2e-06 -1e-06 -0.0 0.069793 -0.002689 -0.044556 0.263887 -0.090523 -0.092464 0.326107 0.084208 0.005772 -119.20089 -78.115814 136.758759 25.698875 -45.785271 13.620917 37.102325 0.041379 -0.152651 1.461391 -1.172865 17.675852 17.636627 -26.322721 52.411171 -19.46666 -14.395594 29.410381 -0.0 -8.774821 -1e-06 16.149347 -17.816813 5.93829 -0.609776 -1.795653 -3.889322 -4.807088 -11.046809 -2.937849 5e-06 -20.976011 -3e-06 -5.019969 -25.033556 -4.03188 6e-06 2e-06 -1e-06 -10.634533 -5.68697 -3.565586 10.573271 -17.922945 -3.113897 3e-06 -13.821205 -1e-06 -0.501776 -31.181498 -4.027013 -11.5177 -59.776909 7.542581 -13.982712 -7.150198 -2.875039 13.772727 -8.401488 -3.21824 0.347734 -34.211536 0.771651 -0.963029 -17.733362 2.621019 -1e-06 -1e-06 1e-06 -17.346416 -20.095211 -4.201777 21.757555 -1.638374 3.866427 2e-06 -6.338821 -0.0 -1.697589 -22.591738 -6.194003 0.0 -4e-06 -1e-06 63.808899 -78.053658 133.592529 32.477932 -48.809948 16.765619 40.668949 0.336955 0.025713 -2.481466 4.298493 8.40997 22.182121 -20.375893 49.933308 -16.701811 -16.743528 28.476522 -1e-06 -12.690603 -2e-06 16.167913 -17.406357 2.496312 -0.105919 -1.513857 -4.275878 -5.039042 -5.612871 -2.953556 3e-06 -11.020525 -1e-06 -6.1113 -15.895334 -3.84047 -0.0 -0.0 0.0 -10.283372 -5.680287 -4.341836 11.028294 -11.302405 -2.372633 -1.384272 -14.238581 -6.320117 -0.625442 -26.924189 -3.827599 -3.936145 -49.29388 -4.148193 -13.708528 -7.363476 -3.720938 18.14115 -14.052739 -3.242674 5e-06 -18.787271 -3e-06 -0.429711 -8.456045 2.555502 0.0 0.0 -1e-06 -15.923539 -20.094486 -5.473584 30.419218 -7.190825 1.73593 3e-06 -8.162927 -1e-06 -1.861903 -22.861469 -6.167942 0.0 -4e-06 -1e-06 -164.691208 -7.728381 -11.439929 18.285818 -0.289008 0.800427 -80.876747 11.072017 -5.45316 -15.985961 1.880921 2.110102 -1.0 1e-06 0.0 -18.431938 -4.027013 -15.847343 16.359346 0.119486 -0.152605 -64.217896 -4.487444 -2.504131 -7.02615 0.740948 1.620381 -1.000001 -0.0 0.0 
0.0 0.0 0.0 0.0 -0.0 0.0 -15.669654 98.412697 273.953003 89.713593 2.210974 96.630226 1.566771 -0.059385 -0.392518 -10.473905 -0.782874 -0.781226 14.847088 -0.709025 -3.886869 13.996935 -0.935275 2.66349 -2.368473 -0.753629 -0.613798 -40.717655 -1.253964 -0.872241 3e-06 -0.0 -0.0 0.068475 -0.004019 -0.046714 0.242669 -0.101937 -0.09885 0.301548 0.093436 0.005846 -118.090027 -78.50647 135.521774 26.228283 -45.579895 14.49223 37.815655 0.203697 -0.121503 0.574793 -1.732145 19.208315 17.636627 -26.322733 52.411179 -19.466656 -14.395597 29.410381 -0.0 -8.774821 -3e-06 16.120882 -17.798275 5.893957 -0.609776 -1.795655 -3.889328 -4.807087 -11.046808 -2.937847 4e-06 -20.976015 1e-06 -5.019972 -25.033556 -4.031878 6e-06 -1e-06 -2e-06 -10.634532 -5.686968 -3.565587 10.573274 -17.922947 -3.113899 2e-06 -13.821206 0.0 -0.50178 -31.181505 -4.027011 -11.401729 -59.650276 7.431293 -13.982711 -7.150198 -2.875039 13.772727 -8.401491 -3.218242 0.34773 -34.211552 0.771658 -0.963031 -17.73337 2.621021 -0.0 0.0 1e-06 -17.346413 -20.095215 -4.201778 21.757555 -1.638374 3.866427 1e-06 -6.338823 0.0 -1.69759 -22.591742 -6.194002 -1e-06 -4e-06 -2e-06 65.941437 -78.52903 131.26265 33.614979 -48.907139 15.946433 42.363407 0.385438 0.072173 -2.647303 4.857607 8.159554 22.182108 -20.375895 49.933319 -16.701811 -16.74353 28.47653 -2e-06 -12.690601 -2e-06 16.200981 -17.530649 2.482064 -0.10592 -1.513856 -4.275885 -5.03904 -5.612871 -2.953554 4e-06 -11.020523 -0.0 -6.111298 -15.895332 -3.840472 -0.0 0.0 1e-06 -10.283367 -5.680286 -4.341839 11.028294 -11.302402 -2.372635 -1.384268 -14.238579 -6.320119 -0.625438 -26.924185 -3.827598 -4.025177 -49.276562 -4.098813 -13.708521 -7.363473 -3.720939 18.141148 -14.05274 -3.242672 6e-06 -18.78727 -2e-06 -0.429713 -8.456045 2.555504 0.0 0.0 0.0 -15.923532 -20.094482 -5.473583 30.41921 -7.190826 1.735924 2e-06 -8.162925 -0.0 -1.861902 -22.861467 -6.167941 -2e-06 -2e-06 -0.0 -166.612488 -9.794592 -10.836935 24.469088 -0.346659 0.850725 -77.802902 12.58497 -5.23752 -19.422813 1.966564 2.070812 -0.999999 -0.0 -0.0 -16.531666 -2.863463 -16.316328 15.860738 0.126893 -0.168256 -66.015839 -4.871003 -2.021432 -6.775372 0.716499 1.61668 -1.000001 -0.0 -0.0 
